<?xml version="1.0" encoding="UTF-8"?>
<svg xmlns="http://www.w3.org/2000/svg" width="252.36" height="133.807" viewBox="0 0 252.36 133.807">
  <g transform="translate(-8.64 -20.828)">
    <rect width="1.672" height="90.162" transform="translate(48.295 32.166)" fill="#1a1818"></rect>
    <path d="M119.061,42.94l-4.548,18.243H110.37l-2.978-12.062c-.108.465-.162.658-.245,1.04l-2.626,11.023h-4.116L95.778,42.94h4.3l2.492,11.132a5.729,5.729,0,0,0,.135.6c.026.109.081.3.135.547l2.951-12.282h3.9l3.06,12.282.135-.547.136-.6,2.545-11.132Z" transform="translate(-40.888 -10.376)" fill="#3f6b81"></path>
    <path d="M155.195,51.834a11.621,11.621,0,0,1-2,6.728,6.948,6.948,0,0,1-5.766,2.653c-4.576,0-7.635-3.774-7.635-9.464,0-5.662,3.059-9.328,7.8-9.328a6.56,6.56,0,0,1,5.577,2.655,11.65,11.65,0,0,1,2.031,6.756m-10.993.027c0,3.883,1.137,5.853,3.33,5.853s3.25-1.916,3.25-5.88-1.056-5.909-3.221-5.909a2.565,2.565,0,0,0-2.546,1.559,10.5,10.5,0,0,0-.813,4.377" transform="translate(-61.539 -10.133)" fill="#3f6b81"></path>
    <path d="M176.992,53.963v7.221H172.74V42.939h7.933c2.356,0,3.574.329,4.711,1.259a5.576,5.576,0,0,1,1.868,4.212A5.088,5.088,0,0,1,185.17,52.6a10.4,10.4,0,0,1-1.031.546l3.33,8.043h-4.682l-2.763-7.221Zm0-7.768v4.65h2.6c2.357,0,3.3-.685,3.3-2.378,0-1.669-.895-2.272-3.413-2.272Z" transform="translate(-77.001 -10.375)" fill="#3f6b81"></path>
    <path d="M209.259,57.573h7.175v3.61H204.98V42.94h4.279Z" transform="translate(-92.128 -10.376)" fill="#3f6b81"></path>
    <path d="M229.363,42.94h5.552c3.49,0,5.278.656,6.959,2.545a9.685,9.685,0,0,1,2.326,6.536c0,5.5-3.438,9.163-8.584,9.163h-6.254Zm4.17,3.365v11.46h1.761a3.657,3.657,0,0,0,3.221-1.5,7.215,7.215,0,0,0,1.327-4.294,7,7,0,0,0-1.274-4.213,3.641,3.641,0,0,0-3.247-1.449Z" transform="translate(-103.57 -10.376)" fill="#3f6b81"></path>
    <path d="M260.733,50.379l1.842-3.61h-1.842v-3.83h3.846v3.337l-2.384,4.1Z" transform="translate(-118.29 -10.375)" fill="#3f6b81"></path>
    <path d="M283.83,46.718l-3.575,1.2a2.872,2.872,0,0,0-3.141-2.16c-1.6,0-2.463.6-2.463,1.668,0,1.012.649,1.477,2.6,1.887,3.249.656,4.306,1.066,5.414,2.079a5.016,5.016,0,0,1,1.653,3.775,5.978,5.978,0,0,1-2.626,4.868,8.953,8.953,0,0,1-4.792,1.177,8.165,8.165,0,0,1-5.172-1.559,5.549,5.549,0,0,1-2.164-3.5l3.9-.9c.515,1.778,1.651,2.57,3.683,2.57,1.788,0,2.9-.737,2.9-1.914,0-1.122-.676-1.559-3.139-2.078a12.977,12.977,0,0,1-4.2-1.423,4.652,4.652,0,0,1-2.193-4.184c0-3.474,2.626-5.8,6.551-5.8a7.556,7.556,0,0,1,4.766,1.4,5.454,5.454,0,0,1,2,2.9" transform="translate(-122.432 -10.133)" fill="#3f6b81"></path>
    <path d="M320.8,61.184,316.362,46.3V61.184h-3.546V42.94H319.4l3.167,10.914,3.331-10.914h6.58V61.184h-4.251V46.3L323.7,61.184Z" transform="translate(-142.729 -10.376)" fill="#3f6b81"></path>
    <path d="M369.183,51.834a11.621,11.621,0,0,1-2,6.728,6.95,6.95,0,0,1-5.766,2.653c-4.577,0-7.636-3.774-7.636-9.464,0-5.662,3.059-9.328,7.8-9.328a6.56,6.56,0,0,1,5.578,2.655,11.65,11.65,0,0,1,2.03,6.756m-10.992.027c0,3.883,1.138,5.853,3.331,5.853s3.248-1.916,3.248-5.88-1.056-5.909-3.222-5.909A2.564,2.564,0,0,0,359,47.484a10.513,10.513,0,0,0-.813,4.377" transform="translate(-161.949 -10.133)" fill="#3f6b81"></path>
    <path d="M397.583,46.718l-3.575,1.2a2.871,2.871,0,0,0-3.139-2.16c-1.6,0-2.465.6-2.465,1.668,0,1.012.65,1.477,2.6,1.887,3.25.656,4.306,1.066,5.414,2.079a5.018,5.018,0,0,1,1.654,3.775,5.978,5.978,0,0,1-2.626,4.868,8.954,8.954,0,0,1-4.793,1.177,8.16,8.16,0,0,1-5.171-1.559,5.544,5.544,0,0,1-2.164-3.5l3.9-.9c.516,1.778,1.653,2.57,3.685,2.57,1.787,0,2.895-.737,2.895-1.914,0-1.122-.676-1.559-3.141-2.078a12.978,12.978,0,0,1-4.2-1.423,4.65,4.65,0,0,1-2.194-4.184c0-3.474,2.628-5.8,6.552-5.8a7.556,7.556,0,0,1,4.766,1.4,5.457,5.457,0,0,1,2,2.9" transform="translate(-175.809 -10.133)" fill="#3f6b81"></path>
    <path d="M424.915,42.94v3.639H420.45v14.6h-4.279v-14.6h-4.5V42.94Z" transform="translate(-189.116 -10.375)" fill="#3f6b81"></path>
    <path d="M38.557,226.072,35.25,239.2H32.238l-2.166-8.68c-.079.334-.118.472-.177.748L27.986,239.2H24.994l-3.367-13.129h3.131l1.812,8.011a3.866,3.866,0,0,0,.1.432c.02.079.059.217.1.394l2.147-8.838h2.834l2.225,8.838.1-.394.1-.432,1.85-8.011Z" transform="translate(-6.094 -96.307)" fill="#818386"></path>
    <path d="M71.676,226.072,68.37,239.2H65.358l-2.165-8.68c-.079.334-.118.472-.178.748L61.106,239.2H58.113l-3.366-13.129h3.13l1.812,8.011a3.938,3.938,0,0,0,.1.432c.02.079.06.217.1.394l2.146-8.838h2.834l2.224,8.838.1-.394.1-.432,1.85-8.011Z" transform="translate(-21.635 -96.307)" fill="#818386"></path>
    <path d="M104.794,226.072,101.486,239.2H98.475l-2.164-8.68c-.08.334-.118.472-.178.748l-1.91,7.932H91.23l-3.366-13.129h3.13l1.811,8.011c0,.041.04.2.1.432.021.079.06.217.1.394l2.145-8.838h2.836l2.224,8.838.1-.394.1-.432,1.849-8.011Z" transform="translate(-37.174 -96.307)" fill="#818386"></path>
    <rect width="2.972" height="2.971" transform="translate(68.6 139.923)" fill="#818386"></rect>
    <path d="M141.88,228.591h-6.26v2.678h4.921v2.48H135.62v2.874h6.26V239.2h-9.37V226.072h9.37Z" transform="translate(-58.124 -96.306)" fill="#818386"></path>
    <path d="M161.533,226.072v2.618h-3.248V239.2h-3.11V228.69h-3.268v-2.618Z" transform="translate(-67.225 -96.306)" fill="#818386"></path>
    <path d="M183.426,226.072V239.2h-3.032v-5.412h-4.133V239.2h-2.993V226.072h2.993v5.136h4.133v-5.136Z" transform="translate(-77.249 -96.306)" fill="#818386"></path>
    <rect width="3.07" height="13.129" transform="translate(109.209 129.764)" fill="#818386"></rect>
    <path d="M217.5,228.791l-2.6.865a2.09,2.09,0,0,0-2.284-1.556c-1.161,0-1.792.434-1.792,1.2,0,.728.473,1.062,1.891,1.357,2.36.473,3.13.769,3.937,1.5a3.6,3.6,0,0,1,1.2,2.715,4.294,4.294,0,0,1-1.908,3.505,6.578,6.578,0,0,1-3.484.846A5.982,5.982,0,0,1,208.7,238.1a3.983,3.983,0,0,1-1.577-2.52l2.836-.651a2.414,2.414,0,0,0,2.676,1.852c1.3,0,2.106-.532,2.106-1.379,0-.807-.491-1.121-2.282-1.5a9.535,9.535,0,0,1-3.051-1.023,3.347,3.347,0,0,1-1.6-3.012c0-2.5,1.911-4.174,4.765-4.174a5.542,5.542,0,0,1,3.465,1,3.927,3.927,0,0,1,1.457,2.088" transform="translate(-93.137 -96.131)" fill="#818386"></path>
    <path d="M235.014,234.339V239.2H231.9V226.072h5.156c1.95,0,2.756.237,3.7,1.043a3.849,3.849,0,0,1,1.318,3.012,4.3,4.3,0,0,1-1.417,3.288c-.866.728-1.614.924-3.486.924Zm-.058-2.381h1.969c1.3,0,2.066-.65,2.066-1.752,0-1.122-.748-1.731-2.086-1.731h-1.948Z" transform="translate(-104.763 -96.307)" fill="#818386"></path>
    <path d="M265.166,226.072V239.2h-3.032v-5.412H258V239.2h-2.992V226.072H258v5.136h4.134v-5.136Z" transform="translate(-115.603 -96.306)" fill="#818386"></path>
    <path d="M289.229,228.591h-6.261v2.678h4.921v2.48h-4.921v2.874h6.261V239.2h-9.37V226.072h9.37Z" transform="translate(-127.264 -96.306)" fill="#818386"></path>
    <path d="M304.827,234v5.2h-3.091V226.072H307.5a4.86,4.86,0,0,1,3.426.907,3.99,3.99,0,0,1,1.358,3.029,3.645,3.645,0,0,1-1.517,3.012,7.279,7.279,0,0,1-.747.394l2.421,5.786H309.04l-2.008-5.2Zm0-5.59v3.345h1.888c1.715,0,2.4-.492,2.4-1.712,0-1.2-.65-1.633-2.48-1.633Z" transform="translate(-137.529 -96.307)" fill="#818386"></path>
    <path d="M336.216,228.591h-6.26v2.678h4.921v2.48h-4.921v2.874h6.26V239.2h-9.369V226.072h9.369Z" transform="translate(-149.312 -96.306)" fill="#818386"></path>
    <rect width="2.973" height="2.971" transform="translate(188.952 139.923)" fill="#818386"></rect>
    <path d="M369.294,230.78l-3.228.216c-.1-1.928-.768-2.816-2.146-2.816-1.631,0-2.42,1.458-2.42,4.411,0,2.853.767,4.113,2.479,4.113,1.28,0,2.049-.806,2.325-2.46l2.991.176a5.294,5.294,0,0,1-.984,2.738,5.171,5.171,0,0,1-4.369,2.066c-3.564,0-5.867-2.658-5.867-6.772S360.4,225.7,364,225.7a4.9,4.9,0,0,1,4.174,1.87,6.08,6.08,0,0,1,1.12,3.211" transform="translate(-163.965 -96.131)" fill="#818386"></path>
    <path d="M393.307,232.471a8.308,8.308,0,0,1-1.458,4.844,5.079,5.079,0,0,1-4.191,1.908c-3.328,0-5.551-2.716-5.551-6.81,0-4.076,2.223-6.714,5.669-6.714a4.785,4.785,0,0,1,4.055,1.911,8.326,8.326,0,0,1,1.477,4.861m-7.992.021c0,2.794.826,4.212,2.42,4.212s2.362-1.377,2.362-4.232-.767-4.251-2.342-4.251a1.863,1.863,0,0,0-1.85,1.122,7.459,7.459,0,0,0-.591,3.15" transform="translate(-175.242 -96.131)" fill="#818386"></path>
    <path d="M413.538,239.2l-3.226-10.707V239.2h-2.579V226.072h4.784l2.3,7.854,2.424-7.854h4.783V239.2h-3.091V228.493L415.646,239.2Z" transform="translate(-187.266 -96.306)" fill="#818386"></path>
    <path d="M121.383,90.548H105.126v7h12.78v6.483h-12.78v7.512h16.257v6.74H97.049V83.962h24.334Z" transform="translate(-41.484 -29.624)" fill="#3f6b81"></path>
    <path d="M170.493,83.963v6.844h-8.434v27.475h-8.078V90.807H145.5V83.963Z" transform="translate(-64.217 -29.625)" fill="#3f6b81"></path>
    <path d="M223.018,83.963v34.319h-7.873V104.133H204.41v14.148h-7.772V83.963h7.772V97.391h10.736V83.963Z" transform="translate(-88.214 -29.625)" fill="#3f6b81"></path>
    <rect width="7.976" height="34.319" transform="translate(140.375 54.338)" fill="#3f6b81"></rect>
    <path d="M308.419,96.269l-8.384.566c-.255-5.041-1.995-7.357-5.571-7.357-4.245,0-6.289,3.807-6.289,11.525,0,7.461,1.993,10.753,6.44,10.753,3.323,0,5.318-2.109,6.032-6.431l7.772.464c-.562,3.6-1.023,4.991-2.555,7.151-2.5,3.5-6.492,5.4-11.35,5.4-9.252,0-15.234-6.946-15.234-17.7S285.312,83,294.667,83c4.806,0,8.538,1.7,10.839,4.887,1.788,2.574,2.3,4.116,2.913,8.386" transform="translate(-126.992 -29.171)" fill="#3f6b81"></path>
    <path d="M354.129,83.963l10.685,34.319h-8.589l-2.1-7.049h-10.99l-2.147,7.049h-7l10.889-34.319Zm-9.1,20.94h7.257l-3.629-12.04Z" transform="translate(-152.663 -29.625)" fill="#3f6b81"></path>
    <path d="M404.67,111.49h13.546v6.792H396.592V83.963h8.078Z" transform="translate(-182.039 -29.625)" fill="#3f6b81"></path>
    <path d="M117.037,163.252l-5.8.387c-.176-3.445-1.379-5.028-3.855-5.028-2.937,0-4.352,2.6-4.352,7.873,0,5.1,1.379,7.348,4.457,7.348,2.3,0,3.679-1.441,4.175-4.4l5.377.317a9.123,9.123,0,0,1-9.622,8.576c-6.4,0-10.543-4.745-10.543-12.091s4.173-12.056,10.649-12.056c3.325,0,5.908,1.16,7.5,3.34,1.239,1.757,1.592,2.811,2.016,5.729" transform="translate(-41.401 -62.574)" fill="#3f6b81"></path>
    <path d="M157.194,166.275a14.76,14.76,0,0,1-2.617,8.647,9.154,9.154,0,0,1-7.535,3.409c-5.98,0-9.977-4.85-9.977-12.16,0-7.276,4-11.987,10.189-11.987a8.624,8.624,0,0,1,7.287,3.41,14.8,14.8,0,0,1,2.653,8.682m-14.363.035c0,4.992,1.486,7.523,4.352,7.523s4.246-2.462,4.246-7.558-1.382-7.593-4.211-7.593a3.358,3.358,0,0,0-3.326,2,13.308,13.308,0,0,0-1.061,5.625" transform="translate(-60.26 -62.574)" fill="#3f6b81"></path>
    <path d="M190.558,178.291l-5.8-19.12v19.12H180.12V154.847h8.6l4.141,14.024,4.352-14.024h8.6v23.444h-5.555V159.17l-5.909,19.12Z" transform="translate(-80.464 -62.886)" fill="#3f6b81"></path>
    <path d="M241.369,169.609v8.681H235.78V154.847h9.268c3.5,0,4.954.421,6.651,1.861a6.856,6.856,0,0,1,2.371,5.379,7.66,7.66,0,0,1-2.548,5.87c-1.557,1.3-2.9,1.652-6.26,1.652Zm-.106-4.254H244.8c2.335,0,3.715-1.159,3.715-3.129,0-2-1.345-3.092-3.751-3.092h-3.5Z" transform="translate(-106.581 -62.886)" fill="#3f6b81"></path>
    <path d="M281.044,154.847l7.395,23.444H282.5l-1.451-4.814h-7.6l-1.487,4.814h-4.847l7.536-23.444Zm-6.3,14.306h5.022l-2.511-8.226Z" transform="translate(-121.28 -62.886)" fill="#3f6b81"></path>
    <path d="M328.578,154.847V178.29h-4.705L314.6,162.473c0,.353.034.6.034.773.036.563.072.879.072,1.02V178.29h-4.283V154.847h5.944l8.033,13.848c-.072-.772-.107-1.125-.107-1.581V154.847Z" transform="translate(-141.608 -62.886)" fill="#3f6b81"></path>
    <rect width="5.519" height="23.443" transform="translate(190.792 91.962)" fill="#3f6b81"></rect>
    <path d="M386.325,159.345h-11.25v4.78h8.845v4.429h-8.845v5.133h11.25v4.6H369.484V154.847h16.842Z" transform="translate(-169.319 -62.886)" fill="#3f6b81"></path>
    <path d="M419.991,159.7l-4.668,1.546c-.851-2.074-1.875-2.776-4.1-2.776-2.088,0-3.221.772-3.221,2.143,0,1.3.85,1.9,3.4,2.426,4.245.844,5.626,1.372,7.076,2.671a6.411,6.411,0,0,1,2.159,4.85,7.652,7.652,0,0,1-3.432,6.258,11.862,11.862,0,0,1-6.262,1.511,10.794,10.794,0,0,1-6.76-2c-1.591-1.23-2.12-2.108-2.827-4.5l5.094-1.163c.672,2.288,2.159,3.306,4.811,3.306,2.335,0,3.785-.949,3.785-2.46,0-1.442-.885-2-4.1-2.671a17.171,17.171,0,0,1-5.484-1.829,5.957,5.957,0,0,1-2.867-5.377c0-4.465,3.434-7.453,8.561-7.453a9.982,9.982,0,0,1,6.228,1.793,6.989,6.989,0,0,1,2.617,3.725" transform="translate(-184.271 -62.574)" fill="#3f6b81"></path>
    <rect width="220.792" height="1.672" transform="translate(15.38 121.851)" fill="#1a1818"></rect>
    <rect width="220.352" height="5.47" transform="translate(15.476 20.828)" fill="#1a1818"></rect>
    <rect width="220.447" height="5.47" transform="translate(15.362 149.165)" fill="#1a1818"></rect>
    <g transform="translate(238.236 92.034)">
      <path d="M441.211,158.858a4,4,0,1,1,4,3.874A3.828,3.828,0,0,1,441.211,158.858Zm4-2.955a2.959,2.959,0,1,0,2.809,2.955A2.8,2.8,0,0,0,445.21,155.9Zm-.658,5.075h-.918v-4.249h1.6c1.108,0,1.745.313,1.745,1.284a1.019,1.019,0,0,1-1.055,1.128l.981,1.837h-1.013l-.908-1.744h-.428Zm0-2.5h.8c.511,0,.658-.135.658-.564,0-.323-.188-.438-.815-.438h-.647Z" transform="translate(-441.211 -154.984)" fill="#3f6b81"></path>
    </g>
    <g transform="translate(242.933 22.163)">
      <path d="M456.906,25.029H454.6v6.585h-2.249V25.029h-2.288V23.343h6.845Zm6.283,3.333,1.867-5.019h3.072v8.27H466V25.993h-.04l-1.968,5.621h-1.626L460.4,25.993h-.041v5.621h-2.128v-8.27H461.3Z" transform="translate(-450.061 -23.343)" fill="#1a1818"></path>
    </g>
    <text transform="translate(40.64 116.433) rotate(-90)" fill="#1a1818" font-size="34" font-family="Rockwell-Bold, Rockwell" font-weight="700" letter-spacing="-0.005em">
      <tspan x="0" y="0">2</tspan>
      <tspan y="0" letter-spacing="-0.025em">021</tspan>
    </text>
  </g>
</svg>
